<mxfile host="app.diagrams.net" modified="2021-07-20T09:46:36.337Z" agent="5.0 (Windows NT 10.0; Win64; x64) AppleWebKit/537.36 (KHTML, like Gecko) Chrome/91.0.4472.124 Safari/537.36" etag="u8LwHqpBJeisS-8I2ieL" version="14.9.0" type="github">
  <diagram id="vKQUK_L88tqBPl6FTPo_" name="Page-1">
    <mxGraphModel dx="1422" dy="746" grid="1" gridSize="10" guides="1" tooltips="1" connect="1" arrows="1" fold="1" page="1" pageScale="1" pageWidth="827" pageHeight="1169" math="0" shadow="0">
      <root>
        <mxCell id="0" />
        <mxCell id="1" parent="0" />
        <mxCell id="zPOfaUPRtYskyF9KzwzK-1" value="Datahub" style="rounded=0;whiteSpace=wrap;html=1;" parent="1" vertex="1">
          <mxGeometry x="160" y="265" width="120" height="60" as="geometry" />
        </mxCell>
        <mxCell id="zPOfaUPRtYskyF9KzwzK-2" value="调度管理器" style="rounded=0;whiteSpace=wrap;html=1;" parent="1" vertex="1">
          <mxGeometry x="495" y="80" width="120" height="60" as="geometry" />
        </mxCell>
        <mxCell id="zPOfaUPRtYskyF9KzwzK-3" value="TiDB" style="shape=cylinder3;whiteSpace=wrap;html=1;boundedLbl=1;backgroundOutline=1;size=15;fillColor=#d5e8d4;strokeColor=#82b366;fontStyle=1" parent="1" vertex="1">
          <mxGeometry x="340" y="275" width="60" height="70" as="geometry" />
        </mxCell>
        <mxCell id="zPOfaUPRtYskyF9KzwzK-5" value="" style="rounded=0;whiteSpace=wrap;html=1;" parent="1" vertex="1">
          <mxGeometry x="460" y="365" width="190" height="100" as="geometry" />
        </mxCell>
        <mxCell id="zPOfaUPRtYskyF9KzwzK-9" value="猛犸" style="text;html=1;strokeColor=none;fillColor=none;align=center;verticalAlign=middle;whiteSpace=wrap;rounded=0;" parent="1" vertex="1">
          <mxGeometry x="570" y="370" width="40" height="20" as="geometry" />
        </mxCell>
        <mxCell id="zPOfaUPRtYskyF9KzwzK-10" value="" style="shape=flexArrow;endArrow=classic;html=1;" parent="1" edge="1">
          <mxGeometry width="50" height="50" relative="1" as="geometry">
            <mxPoint x="90" y="424" as="sourcePoint" />
            <mxPoint x="160" y="424" as="targetPoint" />
          </mxGeometry>
        </mxCell>
        <mxCell id="zPOfaUPRtYskyF9KzwzK-11" value="" style="shape=flexArrow;endArrow=classic;html=1;" parent="1" edge="1">
          <mxGeometry width="50" height="50" relative="1" as="geometry">
            <mxPoint x="280" y="425" as="sourcePoint" />
            <mxPoint x="350" y="425" as="targetPoint" />
          </mxGeometry>
        </mxCell>
        <mxCell id="zPOfaUPRtYskyF9KzwzK-12" value="Iceberg" style="shape=note;whiteSpace=wrap;html=1;backgroundOutline=1;darkOpacity=0.05;size=13;fontSize=15;fontStyle=1" parent="1" vertex="1">
          <mxGeometry x="350" y="390" width="50" height="70" as="geometry" />
        </mxCell>
        <mxCell id="zPOfaUPRtYskyF9KzwzK-13" value="" style="shape=flexArrow;endArrow=classic;html=1;" parent="1" edge="1">
          <mxGeometry width="50" height="50" relative="1" as="geometry">
            <mxPoint x="400" y="424" as="sourcePoint" />
            <mxPoint x="470" y="424" as="targetPoint" />
          </mxGeometry>
        </mxCell>
        <mxCell id="zPOfaUPRtYskyF9KzwzK-14" value="Kafka" style="text;html=1;strokeColor=none;fillColor=none;align=center;verticalAlign=middle;whiteSpace=wrap;rounded=0;fontSize=15;fontStyle=1" parent="1" vertex="1">
          <mxGeometry x="50" y="415" width="40" height="20" as="geometry" />
        </mxCell>
        <mxCell id="zPOfaUPRtYskyF9KzwzK-15" value="Hive" style="shape=note;whiteSpace=wrap;html=1;backgroundOutline=1;darkOpacity=0.05;size=13;fontSize=15;fontStyle=1" parent="1" vertex="1">
          <mxGeometry x="680" y="390" width="50" height="70" as="geometry" />
        </mxCell>
        <mxCell id="zPOfaUPRtYskyF9KzwzK-16" value="" style="shape=flexArrow;endArrow=classic;html=1;" parent="1" edge="1">
          <mxGeometry width="50" height="50" relative="1" as="geometry">
            <mxPoint x="590" y="424.5" as="sourcePoint" />
            <mxPoint x="680" y="425" as="targetPoint" />
          </mxGeometry>
        </mxCell>
        <mxCell id="zPOfaUPRtYskyF9KzwzK-17" value="" style="endArrow=classic;html=1;fontSize=15;" parent="1" source="zPOfaUPRtYskyF9KzwzK-1" edge="1">
          <mxGeometry width="50" height="50" relative="1" as="geometry">
            <mxPoint x="220" y="235" as="sourcePoint" />
            <mxPoint x="220" y="395" as="targetPoint" />
          </mxGeometry>
        </mxCell>
        <mxCell id="zPOfaUPRtYskyF9KzwzK-18" value="任务管理" style="edgeLabel;html=1;align=center;verticalAlign=middle;resizable=0;points=[];fontSize=15;" parent="zPOfaUPRtYskyF9KzwzK-17" vertex="1" connectable="0">
          <mxGeometry x="0.25" y="-2" relative="1" as="geometry">
            <mxPoint x="2" y="-23" as="offset" />
          </mxGeometry>
        </mxCell>
        <mxCell id="zPOfaUPRtYskyF9KzwzK-20" value="" style="endArrow=classic;html=1;fontSize=15;" parent="1" target="zPOfaUPRtYskyF9KzwzK-3" edge="1">
          <mxGeometry width="50" height="50" relative="1" as="geometry">
            <mxPoint x="259.13043478260875" y="395" as="sourcePoint" />
            <mxPoint x="320" y="340" as="targetPoint" />
          </mxGeometry>
        </mxCell>
        <mxCell id="zPOfaUPRtYskyF9KzwzK-21" value="eventTime metrics" style="edgeLabel;html=1;align=center;verticalAlign=middle;resizable=0;points=[];fontSize=15;" parent="zPOfaUPRtYskyF9KzwzK-20" vertex="1" connectable="0">
          <mxGeometry x="0.4587" y="1" relative="1" as="geometry">
            <mxPoint x="-17" y="16" as="offset" />
          </mxGeometry>
        </mxCell>
        <mxCell id="zPOfaUPRtYskyF9KzwzK-22" value="" style="endArrow=classic;html=1;fontSize=15;" parent="1" source="rBz7h8VzHCdGX5G-ixeP-1" target="zPOfaUPRtYskyF9KzwzK-2" edge="1">
          <mxGeometry width="50" height="50" relative="1" as="geometry">
            <mxPoint x="390" y="305" as="sourcePoint" />
            <mxPoint x="440" y="255" as="targetPoint" />
          </mxGeometry>
        </mxCell>
        <mxCell id="zPOfaUPRtYskyF9KzwzK-26" value="查询数据完整性条件" style="edgeLabel;html=1;align=center;verticalAlign=middle;resizable=0;points=[];fontSize=15;" parent="zPOfaUPRtYskyF9KzwzK-22" vertex="1" connectable="0">
          <mxGeometry x="0.3226" relative="1" as="geometry">
            <mxPoint x="-17" y="11" as="offset" />
          </mxGeometry>
        </mxCell>
        <mxCell id="zPOfaUPRtYskyF9KzwzK-27" value="" style="endArrow=classic;html=1;fontSize=15;" parent="1" source="zPOfaUPRtYskyF9KzwzK-2" target="zPOfaUPRtYskyF9KzwzK-5" edge="1">
          <mxGeometry width="50" height="50" relative="1" as="geometry">
            <mxPoint x="540" y="215" as="sourcePoint" />
            <mxPoint x="540" y="375" as="targetPoint" />
          </mxGeometry>
        </mxCell>
        <mxCell id="zPOfaUPRtYskyF9KzwzK-28" value="调度更新" style="edgeLabel;html=1;align=center;verticalAlign=middle;resizable=0;points=[];fontSize=15;" parent="zPOfaUPRtYskyF9KzwzK-27" vertex="1" connectable="0">
          <mxGeometry x="0.25" y="-2" relative="1" as="geometry">
            <mxPoint y="-34" as="offset" />
          </mxGeometry>
        </mxCell>
        <mxCell id="zPOfaUPRtYskyF9KzwzK-29" value="" style="endArrow=none;dashed=1;html=1;fontSize=15;" parent="1" edge="1">
          <mxGeometry width="50" height="50" relative="1" as="geometry">
            <mxPoint x="380" y="585" as="sourcePoint" />
            <mxPoint x="380" y="475" as="targetPoint" />
          </mxGeometry>
        </mxCell>
        <mxCell id="zPOfaUPRtYskyF9KzwzK-32" value="" style="endArrow=classic;startArrow=classic;html=1;fontSize=15;" parent="1" edge="1">
          <mxGeometry width="50" height="50" relative="1" as="geometry">
            <mxPoint x="50" y="525" as="sourcePoint" />
            <mxPoint x="380" y="525" as="targetPoint" />
          </mxGeometry>
        </mxCell>
        <mxCell id="zPOfaUPRtYskyF9KzwzK-33" value="流" style="text;html=1;align=center;verticalAlign=middle;resizable=0;points=[];autosize=1;strokeColor=none;fontSize=15;" parent="1" vertex="1">
          <mxGeometry x="215" y="505" width="30" height="20" as="geometry" />
        </mxCell>
        <mxCell id="zPOfaUPRtYskyF9KzwzK-35" value="" style="endArrow=classic;startArrow=classic;html=1;fontSize=15;" parent="1" edge="1">
          <mxGeometry width="50" height="50" relative="1" as="geometry">
            <mxPoint x="380" y="525" as="sourcePoint" />
            <mxPoint x="740" y="525" as="targetPoint" />
          </mxGeometry>
        </mxCell>
        <mxCell id="zPOfaUPRtYskyF9KzwzK-36" value="批" style="text;html=1;align=center;verticalAlign=middle;resizable=0;points=[];autosize=1;strokeColor=none;fontSize=15;" parent="1" vertex="1">
          <mxGeometry x="540" y="505" width="30" height="20" as="geometry" />
        </mxCell>
        <mxCell id="zPOfaUPRtYskyF9KzwzK-39" value="&lt;span style=&quot;font-size: 12px ; font-style: italic&quot;&gt;Hound Flink任务&lt;/span&gt;" style="rounded=1;whiteSpace=wrap;html=1;fontSize=15;gradientColor=#ffffff;" parent="1" vertex="1">
          <mxGeometry x="160" y="395" width="120" height="60" as="geometry" />
        </mxCell>
        <mxCell id="zPOfaUPRtYskyF9KzwzK-40" value="&lt;span style=&quot;font-size: 12px ; font-style: italic&quot;&gt;T+1快照任务&lt;/span&gt;" style="rounded=1;whiteSpace=wrap;html=1;fontSize=15;gradientColor=#ffffff;" parent="1" vertex="1">
          <mxGeometry x="470" y="395" width="120" height="60" as="geometry" />
        </mxCell>
        <mxCell id="rBz7h8VzHCdGX5G-ixeP-1" value="事件时间检测服务" style="rounded=0;whiteSpace=wrap;html=1;" vertex="1" parent="1">
          <mxGeometry x="310" y="190" width="120" height="60" as="geometry" />
        </mxCell>
        <mxCell id="rBz7h8VzHCdGX5G-ixeP-2" value="" style="endArrow=classic;html=1;" edge="1" parent="1" source="zPOfaUPRtYskyF9KzwzK-3" target="rBz7h8VzHCdGX5G-ixeP-1">
          <mxGeometry width="50" height="50" relative="1" as="geometry">
            <mxPoint x="410" y="315" as="sourcePoint" />
            <mxPoint x="500" y="275" as="targetPoint" />
          </mxGeometry>
        </mxCell>
      </root>
    </mxGraphModel>
  </diagram>
</mxfile>
